# xmcd CD database file
#
# Track frame offsets:
#	150
#	14015
#	29019
#	49799
#	70217
#	88076
#	103484
#	120253
#	137569
#	154170
#	171467
#
# Disc length: 2511 seconds
#
# Revision: 0
# Processed by: cddbd v1.5.2PL0 Copyright (c) Steve Scherf et al.
# Submitted via: CDex 1.51
#
DISCID=9c09cd0b
DTITLE=Kaleb McIntire - Scars
DYEAR=2011
DGENRE=Country
TTITLE0=Find Another Baby
TTITLE1=My Kind Of Crowd
TTITLE2=Jesse James
TTITLE3=Newton County Jail
TTITLE4=Scars
TTITLE5=Love Song
TTITLE6=Redneck In All Of Us
TTITLE7=I Did Her Anyway
TTITLE8=Things Us Country Boys Like
TTITLE9=I Dont Wanna See You Go
TTITLE10=I Don't Buy That Anymore
EXTD=YEAR: 2011
EXTT0=
EXTT1=
EXTT2=
EXTT3=
EXTT4=
EXTT5=
EXTT6=
EXTT7=
EXTT8=
EXTT9=
EXTT10=
PLAYORDER=
